<svg width="1385" height="444" viewBox="0 0 1385 444" fill="none" xmlns="http://www.w3.org/2000/svg">
<rect width="1385" height="444" rx="56" fill="#360F1F"/>
<g clip-path="url(#clip0_112_69)">
<path d="M325.697 274.938C331.624 278.55 334.588 280.356 335.597 282.683C336.478 284.715 336.478 287.02 335.597 289.052C334.588 291.378 331.624 293.185 325.697 296.797L245.291 345.807C242.871 347.282 241.661 348.02 240.367 348.308C239.222 348.562 238.036 348.562 236.891 348.308C235.597 348.02 234.387 347.282 231.967 345.807L151.561 296.797C145.634 293.185 142.671 291.378 141.661 289.052C140.78 287.02 140.78 284.715 141.661 282.683C142.671 280.356 145.634 278.55 151.561 274.938L231.967 225.928C234.387 224.453 235.597 223.715 236.891 223.427C238.036 223.173 239.222 223.173 240.367 223.427C241.661 223.715 242.871 224.453 245.291 225.928L325.697 274.938Z" fill="url(#paint0_linear_112_69)"/>
<path d="M325.697 274.938C331.624 278.55 334.588 280.356 335.597 282.683C336.478 284.715 336.478 287.02 335.597 289.052C334.588 291.378 331.624 293.185 325.697 296.797L245.291 345.807C242.871 347.282 241.661 348.02 240.367 348.308C239.222 348.562 238.036 348.562 236.891 348.308C235.597 348.02 234.387 347.282 231.967 345.807L151.561 296.797C145.634 293.185 142.671 291.378 141.661 289.052C140.78 287.02 140.78 284.715 141.661 282.683C142.671 280.356 145.634 278.55 151.561 274.938L231.967 225.928C234.387 224.453 235.597 223.715 236.891 223.427C238.036 223.173 239.222 223.173 240.367 223.427C241.661 223.715 242.871 224.453 245.291 225.928L325.697 274.938Z" fill="url(#paint1_linear_112_69)"/>
<g filter="url(#filter0_d_112_69)">
<path d="M276.629 189.867C276.629 223.557 249.318 250.867 215.629 250.867C181.94 250.867 154.629 223.557 154.629 189.867C154.629 156.178 181.94 128.867 215.629 128.867C249.318 128.867 276.629 156.178 276.629 189.867Z" fill="url(#paint2_linear_112_69)"/>
</g>
<g filter="url(#filter1_d_112_69)">
<path d="M336.407 151.64L251.007 100.477C244.664 96.6766 241.492 94.7765 238.883 95.0209C236.608 95.2341 234.532 96.4102 233.18 98.2525C231.629 100.365 231.629 104.063 231.629 111.457V332.278C231.629 339.672 231.629 343.37 233.18 345.482C234.532 347.325 236.608 348.501 238.883 348.714C241.492 348.958 244.664 347.058 251.007 343.258L336.407 292.095C338.676 290.736 339.81 290.056 340.634 289.12C341.364 288.291 341.913 287.321 342.249 286.27C342.629 285.082 342.629 283.759 342.629 281.115V162.62C342.629 159.976 342.629 158.653 342.249 157.465C341.913 156.414 341.364 155.444 340.634 154.615C339.81 153.679 338.676 152.999 336.407 151.64Z" fill="url(#paint3_linear_112_69)"/>
</g>
<path d="M438.375 109.025L451.875 152.975L464.325 109.1H470.775L454.2 164H448.875L435.375 121.475L422.475 164H417.225L399.675 109.1H406.725L420.225 152.975L432.75 109.025H438.375Z" fill="white"/>
<path d="M480.437 118.1C479.287 118.1 478.287 117.675 477.437 116.825C476.637 115.925 476.237 114.9 476.237 113.75C476.237 112.6 476.637 111.6 477.437 110.75C478.287 109.85 479.287 109.4 480.437 109.4C481.637 109.4 482.637 109.825 483.437 110.675C484.287 111.525 484.712 112.55 484.712 113.75C484.712 114.9 484.287 115.925 483.437 116.825C482.587 117.675 481.587 118.1 480.437 118.1ZM483.587 164H477.212V125.075H483.587V164Z" fill="white"/>
<path d="M512.852 141.2L528.977 164H520.952L508.427 146.15L501.677 153.65V164H495.302V106.925H501.677V145.475L519.527 125.075H527.327L512.852 141.2Z" fill="white"/>
<path d="M537.785 118.1C536.635 118.1 535.635 117.675 534.785 116.825C533.985 115.925 533.585 114.9 533.585 113.75C533.585 112.6 533.985 111.6 534.785 110.75C535.635 109.85 536.635 109.4 537.785 109.4C538.985 109.4 539.985 109.825 540.785 110.675C541.635 111.525 542.06 112.55 542.06 113.75C542.06 114.9 541.635 115.925 540.785 116.825C539.935 117.675 538.935 118.1 537.785 118.1ZM540.935 164H534.56V125.075H540.935V164Z" fill="white"/>
<path d="M599.676 109.1H605.151V164H598.626V122.15L581.301 149.825H577.326L559.851 122V164H553.401V109.1H559.251L579.501 141.725L599.676 109.1Z" fill="white"/>
<path d="M620.695 118.1C619.545 118.1 618.545 117.675 617.695 116.825C616.895 115.925 616.495 114.9 616.495 113.75C616.495 112.6 616.895 111.6 617.695 110.75C618.545 109.85 619.545 109.4 620.695 109.4C621.895 109.4 622.895 109.825 623.695 110.675C624.545 111.525 624.97 112.55 624.97 113.75C624.97 114.9 624.545 115.925 623.695 116.825C622.845 117.675 621.845 118.1 620.695 118.1ZM623.845 164H617.47V125.075H623.845V164Z" fill="white"/>
<path d="M676.211 124.175C679.911 124.175 682.911 125.525 685.211 128.225C687.511 130.875 688.661 134.7 688.661 139.7V164H682.361V141.8C682.361 138.05 681.711 135.2 680.411 133.25C679.111 131.25 677.186 130.25 674.636 130.25C672.036 130.25 669.811 131.25 667.961 133.25C666.161 135.25 665.261 138.125 665.261 141.875V164H658.961V141.8C658.961 138.1 658.311 135.25 657.011 133.25C655.711 131.25 653.811 130.25 651.311 130.25C648.711 130.25 646.486 131.275 644.636 133.325C642.836 135.325 641.936 138.175 641.936 141.875V164H635.561V125.075H641.186C641.236 126.775 641.361 128.75 641.561 131C642.861 128.75 644.486 127.05 646.436 125.9C648.436 124.75 650.611 124.175 652.961 124.175C655.561 124.175 657.836 124.875 659.786 126.275C661.786 127.625 663.236 129.65 664.136 132.35C665.386 129.6 667.061 127.55 669.161 126.2C671.311 124.85 673.661 124.175 676.211 124.175Z" fill="white"/>
<path d="M697.325 144.5C697.325 140.6 698.175 137.1 699.875 134C701.625 130.9 703.925 128.5 706.775 126.8C709.625 125.05 712.7 124.175 716 124.175C719.3 124.175 722.375 125.025 725.225 126.725C728.075 128.425 730.35 130.825 732.05 133.925C733.75 137.025 734.6 140.55 734.6 144.5C734.6 148.45 733.75 151.975 732.05 155.075C730.35 158.125 728.075 160.525 725.225 162.275C722.375 163.975 719.3 164.825 716 164.825C712.7 164.825 709.6 163.975 706.7 162.275C703.85 160.525 701.575 158.125 699.875 155.075C698.175 151.975 697.325 148.45 697.325 144.5ZM704.075 144.5C704.075 147.45 704.6 150 705.65 152.15C706.7 154.3 708.125 155.95 709.925 157.1C711.725 158.25 713.75 158.825 716 158.825C718.25 158.825 720.275 158.25 722.075 157.1C723.875 155.95 725.275 154.3 726.275 152.15C727.325 150 727.85 147.45 727.85 144.5C727.85 141.55 727.325 139 726.275 136.85C725.275 134.7 723.875 133.05 722.075 131.9C720.275 130.75 718.25 130.175 716 130.175C713.75 130.175 711.725 130.75 709.925 131.9C708.125 133.05 706.7 134.7 705.65 136.85C704.6 139 704.075 141.55 704.075 144.5Z" fill="white"/>
<path d="M395.972 344C392.463 344 389.768 342.496 387.888 339.488C386.008 336.48 385.82 333.284 387.324 329.9L440.152 203.752C442.032 199.365 445.103 197.172 449.364 197.172C453.876 197.172 456.947 199.365 458.576 203.752L511.592 330.276C512.971 333.785 512.72 336.981 510.84 339.864C509.085 342.621 506.391 344 502.756 344C500.876 344 499.059 343.499 497.304 342.496C495.675 341.368 494.484 339.864 493.732 337.984L447.108 222.176H452.372L404.996 337.984C404.119 339.989 402.803 341.493 401.048 342.496C399.419 343.499 397.727 344 395.972 344ZM405.936 311.664L413.456 295.496H487.152L494.672 311.664H405.936Z" fill="white"/>
<path d="M543.763 344C541.006 344 538.687 343.06 536.807 341.18C534.927 339.3 533.987 336.981 533.987 334.224V206.948C533.987 204.065 534.927 201.747 536.807 199.992C538.687 198.112 541.006 197.172 543.763 197.172H577.603C587.003 197.172 595.338 199.177 602.607 203.188C609.877 207.073 615.517 212.463 619.527 219.356C623.663 226.249 625.731 234.271 625.731 243.42C625.731 251.943 623.663 259.525 619.527 266.168C615.517 272.811 609.877 278.012 602.607 281.772C595.338 285.532 587.003 287.412 577.603 287.412H553.539V334.224C553.539 336.981 552.599 339.3 550.719 341.18C548.965 343.06 546.646 344 543.763 344ZM621.783 344C620.029 344 618.399 343.624 616.895 342.872C615.517 342.12 614.326 340.929 613.323 339.3L579.483 284.78L598.471 279.328L629.303 328.96C631.559 332.595 631.873 336.041 630.243 339.3C628.614 342.433 625.794 344 621.783 344ZM553.539 269.364H577.603C583.369 269.364 588.445 268.299 592.831 266.168C597.218 263.912 600.665 260.841 603.171 256.956C605.678 252.945 606.931 248.433 606.931 243.42C606.931 237.905 605.678 233.017 603.171 228.756C600.665 224.495 597.218 221.173 592.831 218.792C588.445 216.411 583.369 215.22 577.603 215.22H553.539V269.364Z" fill="white"/>
<path d="M718.573 345.88C708.421 345.88 698.895 344 689.997 340.24C681.223 336.355 673.515 331.028 666.873 324.26C660.355 317.367 655.217 309.345 651.457 300.196C647.822 291.047 646.005 281.145 646.005 270.492C646.005 259.964 647.822 250.188 651.457 241.164C655.217 232.015 660.355 224.056 666.873 217.288C673.515 210.395 681.223 205.005 689.997 201.12C698.77 197.235 708.295 195.292 718.573 195.292C728.223 195.292 736.495 196.545 743.389 199.052C750.407 201.559 757.426 205.695 764.445 211.46C765.447 212.212 766.199 213.027 766.701 213.904C767.327 214.656 767.703 215.471 767.829 216.348C768.079 217.1 768.205 218.04 768.205 219.168C768.205 221.549 767.327 223.555 765.573 225.184C763.943 226.688 761.938 227.565 759.557 227.816C757.175 227.941 754.857 227.127 752.601 225.372C747.963 221.361 743.138 218.291 738.125 216.16C733.237 214.029 726.719 212.964 718.573 212.964C711.178 212.964 704.222 214.468 697.705 217.476C691.187 220.484 685.422 224.62 680.409 229.884C675.521 235.148 671.698 241.289 668.941 248.308C666.183 255.201 664.805 262.596 664.805 270.492C664.805 278.513 666.183 286.033 668.941 293.052C671.698 299.945 675.521 306.024 680.409 311.288C685.422 316.552 691.187 320.688 697.705 323.696C704.222 326.579 711.178 328.02 718.573 328.02C724.965 328.02 730.981 326.955 736.621 324.824C742.386 322.568 747.901 319.497 753.165 315.612C755.421 313.983 757.614 313.293 759.745 313.544C762.001 313.669 763.881 314.547 765.385 316.176C766.889 317.68 767.641 319.811 767.641 322.568C767.641 323.821 767.39 325.075 766.889 326.328C766.387 327.456 765.635 328.521 764.633 329.524C757.865 334.913 750.595 338.987 742.825 341.744C735.179 344.501 727.095 345.88 718.573 345.88Z" fill="white"/>
<path d="M808.689 344C805.932 344 803.613 343.06 801.733 341.18C799.853 339.3 798.913 336.981 798.913 334.224V206.948C798.913 204.065 799.853 201.747 801.733 199.992C803.613 198.112 805.932 197.172 808.689 197.172C811.572 197.172 813.891 198.112 815.645 199.992C817.525 201.747 818.465 204.065 818.465 206.948V260.904H905.697V206.948C905.697 204.065 906.637 201.747 908.517 199.992C910.397 198.112 912.716 197.172 915.473 197.172C918.356 197.172 920.675 198.112 922.429 199.992C924.184 201.747 925.061 204.065 925.061 206.948V334.224C925.061 336.981 924.184 339.3 922.429 341.18C920.675 343.06 918.356 344 915.473 344C912.716 344 910.397 343.06 908.517 341.18C906.637 339.3 905.697 336.981 905.697 334.224V278.2H818.465V334.224C818.465 336.981 817.525 339.3 815.645 341.18C813.891 343.06 811.572 344 808.689 344Z" fill="white"/>
<path d="M972.455 344C969.698 344 967.379 343.06 965.499 341.18C963.619 339.3 962.679 336.981 962.679 334.224V206.948C962.679 204.065 963.619 201.747 965.499 199.992C967.379 198.112 969.698 197.172 972.455 197.172C975.338 197.172 977.656 198.112 979.411 199.992C981.291 201.747 982.231 204.065 982.231 206.948V334.224C982.231 336.981 981.291 339.3 979.411 341.18C977.656 343.06 975.338 344 972.455 344Z" fill="white"/>
<path d="M1070.16 344C1066.15 344 1063.2 341.932 1061.32 337.796L1006.24 211.836C1004.49 207.575 1004.3 204.065 1005.68 201.308C1007.06 198.551 1009.69 197.172 1013.57 197.172C1017.96 197.172 1020.97 199.115 1022.6 203L1070.91 318.996H1068.84L1118.1 203C1119.1 200.744 1120.23 199.24 1121.48 198.488C1122.86 197.611 1124.68 197.172 1126.94 197.172C1130.7 197.172 1133.27 198.551 1134.64 201.308C1136.15 203.94 1136.15 206.885 1134.64 210.144L1079 337.796C1078.12 339.801 1076.93 341.368 1075.42 342.496C1074.05 343.499 1072.29 344 1070.16 344Z" fill="white"/>
<path d="M1168.17 344C1165.41 344 1163.09 343.06 1161.21 341.18C1159.33 339.3 1158.39 336.981 1158.39 334.224V206.948C1158.39 204.065 1159.33 201.747 1161.21 199.992C1163.09 198.112 1165.41 197.172 1168.17 197.172H1253.14C1256.02 197.172 1258.34 198.049 1260.1 199.804C1261.85 201.433 1262.73 203.627 1262.73 206.384C1262.73 209.016 1261.85 211.147 1260.1 212.776C1258.34 214.405 1256.02 215.22 1253.14 215.22H1177.94V260.904H1231.9C1234.78 260.904 1237.1 261.781 1238.85 263.536C1240.61 265.165 1241.49 267.296 1241.49 269.928C1241.49 272.56 1240.61 274.753 1238.85 276.508C1237.1 278.137 1234.78 278.952 1231.9 278.952H1177.94V325.952H1253.14C1256.02 325.952 1258.34 326.767 1260.1 328.396C1261.85 330.025 1262.73 332.156 1262.73 334.788C1262.73 337.545 1261.85 339.801 1260.1 341.556C1258.34 343.185 1256.02 344 1253.14 344H1168.17Z" fill="white"/>
</g>
<defs>
<filter id="filter0_d_112_69" x="150.629" y="128.867" width="130" height="131" filterUnits="userSpaceOnUse" color-interpolation-filters="sRGB">
<feFlood flood-opacity="0" result="BackgroundImageFix"/>
<feColorMatrix in="SourceAlpha" type="matrix" values="0 0 0 0 0 0 0 0 0 0 0 0 0 0 0 0 0 0 127 0" result="hardAlpha"/>
<feOffset dy="5"/>
<feGaussianBlur stdDeviation="2"/>
<feComposite in2="hardAlpha" operator="out"/>
<feColorMatrix type="matrix" values="0 0 0 0 0 0 0 0 0 0 0 0 0 0 0 0 0 0 0.15 0"/>
<feBlend mode="normal" in2="BackgroundImageFix" result="effect1_dropShadow_112_69"/>
<feBlend mode="normal" in="SourceGraphic" in2="effect1_dropShadow_112_69" result="shape"/>
</filter>
<filter id="filter1_d_112_69" x="224.629" y="92" width="125" height="267.735" filterUnits="userSpaceOnUse" color-interpolation-filters="sRGB">
<feFlood flood-opacity="0" result="BackgroundImageFix"/>
<feColorMatrix in="SourceAlpha" type="matrix" values="0 0 0 0 0 0 0 0 0 0 0 0 0 0 0 0 0 0 127 0" result="hardAlpha"/>
<feOffset dy="4"/>
<feGaussianBlur stdDeviation="3.5"/>
<feComposite in2="hardAlpha" operator="out"/>
<feColorMatrix type="matrix" values="0 0 0 0 0 0 0 0 0 0 0 0 0 0 0 0 0 0 0.28 0"/>
<feBlend mode="normal" in2="BackgroundImageFix" result="effect1_dropShadow_112_69"/>
<feBlend mode="normal" in="SourceGraphic" in2="effect1_dropShadow_112_69" result="shape"/>
</filter>
<linearGradient id="paint0_linear_112_69" x1="304.129" y1="324.867" x2="125.629" y2="214.367" gradientUnits="userSpaceOnUse">
<stop stop-color="#CA40FA"/>
<stop offset="1" stop-color="#FB65A2"/>
</linearGradient>
<linearGradient id="paint1_linear_112_69" x1="304.129" y1="324.867" x2="163.629" y2="249.867" gradientUnits="userSpaceOnUse">
<stop stop-color="#515151" stop-opacity="0.35"/>
<stop offset="1" stop-color="#515151" stop-opacity="0"/>
</linearGradient>
<linearGradient id="paint2_linear_112_69" x1="143.629" y1="137.367" x2="276.629" y2="265.367" gradientUnits="userSpaceOnUse">
<stop stop-color="#21D0F8"/>
<stop offset="1" stop-color="#1296FD"/>
</linearGradient>
<linearGradient id="paint3_linear_112_69" x1="287.129" y1="88.8675" x2="287.129" y2="354.867" gradientUnits="userSpaceOnUse">
<stop stop-color="#FE8BAC"/>
<stop offset="1" stop-color="#FA408B"/>
</linearGradient>
<clipPath id="clip0_112_69">
<rect width="1158" height="256" fill="white" transform="translate(114 94)"/>
</clipPath>
</defs>
</svg>
